<?xml version="1.0" encoding="UTF-8"?>
<!DOCTYPE svg
PUBLIC "-//W3C//DTD SVG 1.1//EN"
       "http://www.w3.org/Graphics/SVG/1.1/DTD/svg11.dtd">
<svg viewBox="160 48 1248 554" width="1088px" height="506px" xmlns="http://www.w3.org/2000/svg" version="1.1">
   <line x1="750" y1="313" x2="760" y2="313" style="stroke:#bbb;stroke-width:1;"/>
   <line x1="750" y1="529" x2="740" y2="529" style="stroke:#bbb;stroke-width:1;"/>
   <line x1="760" y1="313" x2="750" y2="529" style="stroke:#bbb;stroke-width:1;"/>
   <line x1="757.5" y1="313" x2="753.96446609407" y2="316.53553390593" style="stroke:#bbb;stroke-width:2;"/>
   <line x1="757.5" y1="313" x2="753.96446609407" y2="309.46446609407" style="stroke:#bbb;stroke-width:2;"/>
   <line x1="745" y1="529" x2="748.53553390593" y2="532.53553390593" style="stroke:#bbb;stroke-width:2;"/>
   <line x1="745" y1="529" x2="748.53553390593" y2="525.46446609407" style="stroke:#bbb;stroke-width:2;"/>
   <line x1="668" y1="293" x2="658" y2="293" style="stroke:#b0b;stroke-width:1;"/>
   <line x1="263" y1="317" x2="253" y2="317" style="stroke:#b0b;stroke-width:1;"/>
   <line x1="658" y1="293" x2="263" y2="317" style="stroke:#b0b;stroke-width:1;"/>
   <line x1="660.5" y1="293" x2="664.03553390593" y2="296.53553390593" style="stroke:#b0b;stroke-width:2;"/>
   <line x1="660.5" y1="293" x2="664.03553390593" y2="289.46446609407" style="stroke:#b0b;stroke-width:2;"/>
   <line x1="258" y1="317" x2="261.53553390593" y2="320.53553390593" style="stroke:#b0b;stroke-width:2;"/>
   <line x1="258" y1="317" x2="261.53553390593" y2="313.46446609407" style="stroke:#b0b;stroke-width:2;"/>
   <line x1="905" y1="163" x2="895" y2="163" style="stroke:#bbb;stroke-width:1;"/>
   <line x1="760" y1="93" x2="750" y2="93" style="stroke:#bbb;stroke-width:1;"/>
   <line x1="895" y1="163" x2="760" y2="93" style="stroke:#bbb;stroke-width:1;"/>
   <line x1="897.5" y1="163" x2="901.03553390593" y2="166.53553390593" style="stroke:#bbb;stroke-width:2;"/>
   <line x1="897.5" y1="163" x2="901.03553390593" y2="159.46446609407" style="stroke:#bbb;stroke-width:2;"/>
   <line x1="755" y1="93" x2="758.53553390593" y2="96.535533905933" style="stroke:#bbb;stroke-width:2;"/>
   <line x1="755" y1="93" x2="758.53553390593" y2="89.464466094067" style="stroke:#bbb;stroke-width:2;"/>
   <line x1="1016" y1="143" x2="1026" y2="143" style="stroke:#cb0;stroke-width:1;"/>
   <line x1="1112" y1="277" x2="1122" y2="277" style="stroke:#cb0;stroke-width:1;"/>
   <line x1="1026" y1="143" x2="1112" y2="277" style="stroke:#cb0;stroke-width:1;"/>
   <line x1="1023.5" y1="143" x2="1019.9644660941" y2="146.53553390593" style="stroke:#cb0;stroke-width:2;"/>
   <line x1="1023.5" y1="143" x2="1019.9644660941" y2="139.46446609407" style="stroke:#cb0;stroke-width:2;"/>
   <line x1="1117" y1="277" x2="1113.4644660941" y2="280.53553390593" style="stroke:#cb0;stroke-width:2;"/>
   <line x1="1117" y1="277" x2="1113.4644660941" y2="273.46446609407" style="stroke:#cb0;stroke-width:2;"/>
   <line x1="499" y1="178" x2="509" y2="178" style="stroke:#333;stroke-width:1;"/>
   <line x1="658" y1="93" x2="668" y2="93" style="stroke:#333;stroke-width:1;"/>
   <line x1="509" y1="178" x2="658" y2="93" style="stroke:#333;stroke-width:1;"/>
   <line x1="506.5" y1="178" x2="502.96446609407" y2="181.53553390593" style="stroke:#333;stroke-width:2;"/>
   <line x1="506.5" y1="178" x2="502.96446609407" y2="174.46446609407" style="stroke:#333;stroke-width:2;"/>
   <line x1="663" y1="93" x2="659.46446609407" y2="96.535533905933" style="stroke:#333;stroke-width:2;"/>
   <line x1="663" y1="93" x2="659.46446609407" y2="89.464466094067" style="stroke:#333;stroke-width:2;"/>
   <line x1="423" y1="158" x2="413" y2="158" style="stroke:#c00;stroke-width:1;"/>
   <line x1="263" y1="317" x2="253" y2="317" style="stroke:#c00;stroke-width:1;"/>
   <line x1="413" y1="158" x2="263" y2="317" style="stroke:#c00;stroke-width:1;"/>
   <line x1="415.5" y1="158" x2="419.03553390593" y2="161.53553390593" style="stroke:#c00;stroke-width:2;"/>
   <line x1="415.5" y1="158" x2="419.03553390593" y2="154.46446609407" style="stroke:#c00;stroke-width:2;"/>
   <line x1="258" y1="317" x2="261.53553390593" y2="320.53553390593" style="stroke:#c00;stroke-width:2;"/>
   <line x1="258" y1="317" x2="261.53553390593" y2="313.46446609407" style="stroke:#c00;stroke-width:2;"/>
   <rect width="88" height="20" x="652" y="479" style="fill:#007;stroke:black;"/>
   <text width="88" height="20" x="657" y="493" style="fill:#fff;" font-family="Arial" font-size="16px"> Auteur</text>
   <rect width="88" height="20" x="652" y="499" style="fill:none;stroke:black;"/>
   <text width="88" height="20" x="657" y="513" style="fill:black;" font-family="Arial" font-size="16px">nomAuteur</text>
   <rect width="88" height="20" x="652" y="519" style="fill:#aea;stroke:black;"/>
   <text width="88" height="20" x="657" y="533" style="fill:black;" font-family="Arial" font-size="16px">idAuteur</text>
   <rect width="111" height="20" x="1122" y="247" style="fill:#007;stroke:black;"/>
   <text width="111" height="20" x="1127" y="261" style="fill:#fff;" font-family="Arial" font-size="16px"> Categorie</text>
   <rect width="111" height="20" x="1122" y="267" style="fill:#aea;stroke:black;"/>
   <text width="111" height="20" x="1127" y="281" style="fill:black;" font-family="Arial" font-size="16px">nomCategorie</text>
   <rect width="82" height="20" x="668" y="63" style="fill:#007;stroke:black;"/>
   <text width="82" height="20" x="673" y="77" style="fill:#fff;" font-family="Arial" font-size="16px"> Livre</text>
   <rect width="82" height="20" x="668" y="83" style="fill:#aea;stroke:black;"/>
   <text width="82" height="20" x="673" y="97" style="fill:black;" font-family="Arial" font-size="16px">idLivre</text>
   <rect width="82" height="20" x="668" y="103" style="fill:none;stroke:black;"/>
   <text width="82" height="20" x="673" y="117" style="fill:black;" font-family="Arial" font-size="16px">titre</text>
   <rect width="82" height="20" x="668" y="123" style="fill:none;stroke:black;"/>
   <text width="82" height="20" x="673" y="137" style="fill:black;" font-family="Arial" font-size="16px">etat</text>
   <rect width="82" height="20" x="668" y="143" style="fill:none;stroke:black;"/>
   <text width="82" height="20" x="673" y="157" style="fill:black;" font-family="Arial" font-size="16px">langue</text>
   <rect width="82" height="20" x="668" y="163" style="fill:none;stroke:black;"/>
   <text width="82" height="20" x="673" y="177" style="fill:black;" font-family="Arial" font-size="16px">edition</text>
   <rect width="82" height="20" x="668" y="183" style="fill:none;stroke:black;"/>
   <text width="82" height="20" x="673" y="197" style="fill:black;" font-family="Arial" font-size="16px">isbn</text>
   <rect width="82" height="20" x="668" y="203" style="fill:none;stroke:black;"/>
   <text width="82" height="20" x="673" y="217" style="fill:black;" font-family="Arial" font-size="16px">resume</text>
   <rect width="82" height="20" x="668" y="223" style="fill:none;stroke:black;"/>
   <text width="82" height="20" x="673" y="237" style="fill:black;" font-family="Arial" font-size="16px">parution</text>
   <rect width="82" height="20" x="668" y="243" style="fill:none;stroke:black;"/>
   <text width="82" height="20" x="673" y="257" style="fill:black;" font-family="Arial" font-size="16px">nbPages</text>
   <rect width="82" height="20" x="668" y="263" style="fill:none;stroke:black;"/>
   <text width="82" height="20" x="673" y="277" style="fill:black;" font-family="Arial" font-size="16px">disponible</text>
   <rect width="82" height="20" x="668" y="283" style="fill:none;stroke:black;"/>
   <text width="82" height="20" x="673" y="297" style="fill:black;" font-family="Arial" font-size="16px">donneur</text>
   <rect width="82" height="20" x="668" y="303" style="fill:none;stroke:black;"/>
   <text width="82" height="20" x="673" y="317" style="fill:black;" font-family="Arial" font-size="16px">auteur</text>
   <rect width="111" height="20" x="905" y="113" style="fill:#007;stroke:black;"/>
   <text width="111" height="20" x="910" y="127" style="fill:#fff;" font-family="Arial" font-size="16px"> LivreCategorie</text>
   <rect width="111" height="20" x="905" y="133" style="fill:#aea;stroke:black;"/>
   <text width="111" height="20" x="910" y="147" style="fill:black;" font-family="Arial" font-size="16px">nomCategorie</text>
   <rect width="111" height="20" x="905" y="153" style="fill:#aea;stroke:black;"/>
   <text width="111" height="20" x="910" y="167" style="fill:black;" font-family="Arial" font-size="16px">idLivre</text>
   <rect width="78" height="20" x="175" y="287" style="fill:#007;stroke:black;"/>
   <text width="78" height="20" x="180" y="301" style="fill:#fff;" font-family="Arial" font-size="16px"> Profil</text>
   <rect width="78" height="20" x="175" y="307" style="fill:#aea;stroke:black;"/>
   <text width="78" height="20" x="180" y="321" style="fill:black;" font-family="Arial" font-size="16px">pseudo</text>
   <rect width="78" height="20" x="175" y="327" style="fill:none;stroke:black;"/>
   <text width="78" height="20" x="180" y="341" style="fill:black;" font-family="Arial" font-size="16px">password</text>
   <rect width="78" height="20" x="175" y="347" style="fill:none;stroke:black;"/>
   <text width="78" height="20" x="180" y="361" style="fill:black;" font-family="Arial" font-size="16px">mail</text>
   <rect width="78" height="20" x="175" y="367" style="fill:none;stroke:black;"/>
   <text width="78" height="20" x="180" y="381" style="fill:black;" font-family="Arial" font-size="16px">role</text>
   <rect width="76" height="20" x="423" y="128" style="fill:#007;stroke:black;"/>
   <text width="76" height="20" x="428" y="142" style="fill:#fff;" font-family="Arial" font-size="16px"> profilLivre</text>
   <rect width="76" height="20" x="423" y="148" style="fill:#aea;stroke:black;"/>
   <text width="76" height="20" x="428" y="162" style="fill:black;" font-family="Arial" font-size="16px">pseudo</text>
   <rect width="76" height="20" x="423" y="168" style="fill:#aea;stroke:black;"/>
   <text width="76" height="20" x="428" y="182" style="fill:black;" font-family="Arial" font-size="16px">idLivre</text>
   <rect width="76" height="20" x="423" y="188" style="fill:none;stroke:black;"/>
   <text width="76" height="20" x="428" y="202" style="fill:black;" font-family="Arial" font-size="16px">date</text>
</svg>
